<svg xmlns="http://www.w3.org/2000/svg" width="188.542" height="55.864" viewBox="0 0 188.542 55.864">
  <g id="App_store" data-name="App store" transform="translate(-205 -18)">
    <g id="Bg" transform="translate(205 18)">
      <path id="Vector" d="M15.023,0H173.528c.566,0,1.142,0,1.708,0,.392,0,.792.008,1.187.014l.266,0a23.12,23.12,0,0,1,3.151.247,11.643,11.643,0,0,1,3.007.876,9.69,9.69,0,0,1,4.41,3.91,8.525,8.525,0,0,1,.975,2.658,16.785,16.785,0,0,1,.292,2.8c.006.428.006.858.006,1.286.012.506.012,1.013.012,1.525V42.547c0,.516,0,1.02-.012,1.528,0,.434,0,.854-.006,1.288a16.783,16.783,0,0,1-.292,2.8,8.507,8.507,0,0,1-.975,2.66,9.075,9.075,0,0,1-1.862,2.255,9.931,9.931,0,0,1-2.548,1.646,11.7,11.7,0,0,1-3.007.881,23.538,23.538,0,0,1-3.151.247c-.48.009-.972.015-1.453.015-.566,0-1.142,0-1.708,0H15.023c-.578,0-1.149,0-1.725,0-.482,0-.961-.005-1.448-.015A23.85,23.85,0,0,1,8.693,55.6a11.521,11.521,0,0,1-3-.881,9.928,9.928,0,0,1-2.55-1.646,8.806,8.806,0,0,1-1.856-2.255,8.492,8.492,0,0,1-.985-2.66,16.143,16.143,0,0,1-.282-2.8c-.01-.3-.014-.586-.018-.879,0-.136,0-.272-.006-.409V11.793q0-.206.006-.412c0-.291.008-.583.018-.874a16.144,16.144,0,0,1,.282-2.8,8.509,8.509,0,0,1,.985-2.658A8.872,8.872,0,0,1,3.147,2.789,10.187,10.187,0,0,1,5.7,1.143a11.464,11.464,0,0,1,3-.876A23.424,23.424,0,0,1,11.85.021l.3,0C12.536.011,12.916.005,13.3,0,13.874,0,14.445,0,15.023,0Zm-3.28,54.632c.477.009.946.015,1.427.015l160.5,0,1.711,0c.47,0,.954-.005,1.416-.015a22.3,22.3,0,0,0,2.95-.228,10.111,10.111,0,0,0,2.633-.768,8.577,8.577,0,0,0,2.209-1.428,7.784,7.784,0,0,0,1.6-1.936,7.385,7.385,0,0,0,.852-2.333,15.8,15.8,0,0,0,.27-2.589c.006-.428.006-.844.006-1.3.012-.5.012-.994.012-1.5V13.314c0-.5,0-1-.012-1.525,0-.423,0-.848,0-1.243a16.129,16.129,0,0,0-.274-2.636,7.417,7.417,0,0,0-.845-2.3,8.39,8.39,0,0,0-3.812-3.38,10.247,10.247,0,0,0-2.637-.765,22.024,22.024,0,0,0-2.933-.227l-1.441-.018H13.171l-1.424.017a22.382,22.382,0,0,0-2.96.229,10.046,10.046,0,0,0-2.609.76A8.821,8.821,0,0,0,3.964,3.649,7.62,7.62,0,0,0,2.361,5.6,7.412,7.412,0,0,0,1.5,7.924a15.349,15.349,0,0,0-.261,2.615c-.009.284-.023,1.25-.023,1.25V44.058s.013.981.023,1.276a15.4,15.4,0,0,0,.263,2.619,7.369,7.369,0,0,0,.857,2.315,7.553,7.553,0,0,0,1.611,1.951,8.571,8.571,0,0,0,2.2,1.42,10.148,10.148,0,0,0,2.615.765A22.561,22.561,0,0,0,11.743,54.632Z" transform="translate(0 0)" fill="#a6a6a6"/>
      <path id="Vector-2" data-name="Vector" d="M11.951,53.431c-.481,0-.95-.005-1.427-.015a22.562,22.562,0,0,1-2.95-.228,10.147,10.147,0,0,1-2.615-.765A8.57,8.57,0,0,1,2.754,51a7.553,7.553,0,0,1-1.611-1.951,7.369,7.369,0,0,1-.857-2.315,15.4,15.4,0,0,1-.263-2.619C.013,43.824,0,42.843,0,42.843V10.574s.014-.966.023-1.25A15.349,15.349,0,0,1,.284,6.709a7.412,7.412,0,0,1,.858-2.322,7.62,7.62,0,0,1,1.6-1.953A8.821,8.821,0,0,1,4.958,1.006,10.046,10.046,0,0,1,7.567.246a22.382,22.382,0,0,1,2.96-.229L11.952,0h162.2l1.441.018a22.025,22.025,0,0,1,2.933.227,10.248,10.248,0,0,1,2.637.765,8.39,8.39,0,0,1,3.812,3.38,7.417,7.417,0,0,1,.845,2.3A16.129,16.129,0,0,1,186.1,9.33c0,.4,0,.821,0,1.243.012.524.012,1.022.012,1.525V41.334c0,.507,0,1-.012,1.5,0,.454,0,.87-.006,1.3a15.8,15.8,0,0,1-.27,2.589,7.385,7.385,0,0,1-.852,2.333,7.784,7.784,0,0,1-1.6,1.936,8.577,8.577,0,0,1-2.209,1.428,10.111,10.111,0,0,1-2.633.768,22.306,22.306,0,0,1-2.95.228c-.462.009-.946.015-1.416.015l-1.711,0Z" transform="translate(1.219 1.215)"/>
    </g>
    <g id="_Group_" data-name="&lt;Group&gt;" transform="translate(343.822 31)">
      <path id="_Path_" data-name="&lt;Path&gt;" d="M20.666,8.837a6.912,6.912,0,0,1,3.291-5.8A7.075,7.075,0,0,0,18.383.025c-2.345-.246-4.619,1.4-5.814,1.4C11.351,1.428,9.511.049,7.53.09A7.423,7.423,0,0,0,1.283,3.9c-2.7,4.676-.686,11.549,1.9,15.329,1.295,1.851,2.807,3.919,4.787,3.845,1.937-.08,2.661-1.235,5-1.235,2.317,0,3,1.235,5.015,1.189,2.079-.034,3.388-1.859,4.637-3.728a15.31,15.31,0,0,0,2.121-4.319,6.679,6.679,0,0,1-4.077-6.144Z" transform="translate(0 7.336)" fill="#fff"/>
      <path id="_Path_2" data-name="&lt;Path&gt;" d="M4.534,4.875A6.8,6.8,0,0,0,6.091,0a6.924,6.924,0,0,0-4.48,2.318,6.475,6.475,0,0,0-1.6,4.695A5.725,5.725,0,0,0,4.534,4.875Z" transform="translate(12.317)" fill="#fff"/>
    </g>
    <g id="Text" transform="translate(230.977 32.783)">
      <path id="Vector-3" data-name="Vector" d="M11,12.863H4.388L2.8,17.55H0L6.262.207H9.171L15.432,17.55H12.584ZM5.072,10.7h5.24L7.729,3.092H7.657Z" transform="translate(0 13.258)" fill="#fff"/>
      <path id="Vector-4" data-name="Vector" d="M24.115,9.933c0,3.929-2.1,6.454-5.277,6.454a4.287,4.287,0,0,1-3.978-2.212H14.8v6.263H12.2V3.61h2.512v2.1h.048A4.485,4.485,0,0,1,18.79,3.477C22,3.477,24.115,6.014,24.115,9.933Zm-2.668,0c0-2.56-1.323-4.243-3.342-4.243-1.983,0-3.317,1.718-3.317,4.243,0,2.548,1.334,4.254,3.317,4.254C20.124,14.186,21.447,12.516,21.447,9.933Z" transform="translate(4.84 14.554)" fill="#fff"/>
      <path id="Vector-5" data-name="Vector" d="M34.08,9.933c0,3.929-2.1,6.454-5.277,6.454a4.287,4.287,0,0,1-3.978-2.212h-.06v6.263h-2.6V3.61h2.512v2.1h.048a4.485,4.485,0,0,1,4.026-2.235C31.964,3.477,34.08,6.014,34.08,9.933Zm-2.668,0c0-2.56-1.323-4.243-3.342-4.243-1.983,0-3.317,1.718-3.317,4.243,0,2.548,1.334,4.254,3.317,4.254C30.089,14.186,31.412,12.516,31.412,9.933Z" transform="translate(8.792 14.554)" fill="#fff"/>
      <path id="Vector-6" data-name="Vector" d="M38.038,12.8c.192,1.72,1.863,2.849,4.146,2.849,2.188,0,3.762-1.129,3.762-2.68,0-1.346-.949-2.152-3.2-2.7L40.5,9.723c-3.185-.769-4.663-2.259-4.663-4.675C35.838,2.055,38.446,0,42.148,0c3.665,0,6.177,2.055,6.262,5.048H45.79c-.157-1.731-1.588-2.775-3.678-2.775s-3.522,1.057-3.522,2.6c0,1.226.914,1.948,3.149,2.5l1.911.469c3.558.842,5.037,2.271,5.037,4.808,0,3.245-2.585,5.277-6.7,5.277-3.846,0-6.443-1.984-6.611-5.121Z" transform="translate(14.032 13.176)" fill="#fff"/>
      <path id="Vector-7" data-name="Vector" d="M50.182,1.429V4.421h2.4V6.476h-2.4v6.971c0,1.083.481,1.588,1.538,1.588a8.111,8.111,0,0,0,.854-.06v2.043a7.128,7.128,0,0,1-1.442.12c-2.56,0-3.558-.962-3.558-3.414V6.476H45.735V4.421h1.838V1.429Z" transform="translate(18.139 13.742)" fill="#fff"/>
      <path id="Vector-8" data-name="Vector" d="M51.638,9.938c0-3.978,2.343-6.478,6-6.478s6,2.5,6,6.478-2.32,6.478-6,6.478S51.638,13.928,51.638,9.938Zm9.351,0c0-2.729-1.251-4.34-3.354-4.34s-3.352,1.623-3.352,4.34c0,2.74,1.249,4.338,3.352,4.338S60.988,12.678,60.988,9.938Z" transform="translate(20.48 14.548)" fill="#fff"/>
      <path id="Vector-9" data-name="Vector" d="M61.759,3.61h2.475V5.762h.06a3.016,3.016,0,0,1,3.041-2.284,4,4,0,0,1,.889.1V6a3.628,3.628,0,0,0-1.166-.157,2.615,2.615,0,0,0-2.7,2.909v7.5h-2.6Z" transform="translate(24.494 14.554)" fill="#fff"/>
      <path id="Vector-10" data-name="Vector" d="M78.2,12.546c-.349,2.3-2.585,3.871-5.445,3.871-3.678,0-5.962-2.465-5.962-6.418s2.3-6.538,5.852-6.538c3.5,0,5.7,2.4,5.7,6.237v.889H69.41v.157a3.293,3.293,0,0,0,3.4,3.582,2.861,2.861,0,0,0,2.92-1.778ZM69.422,8.772h6.322a3.041,3.041,0,0,0-3.1-3.209,3.2,3.2,0,0,0-3.22,3.209Z" transform="translate(26.49 14.548)" fill="#fff"/>
      <text id="حمل_الان" data-name="حمل الان" transform="translate(104.706 7.217)" fill="#fff" font-size="15" font-family="Tajawal-Bold, Tajawal" font-weight="700"><tspan x="-59.4" y="0">حمل الان</tspan></text>
    </g>
  </g>
</svg>
