<svg xmlns="http://www.w3.org/2000/svg" xmlns:xlink="http://www.w3.org/1999/xlink" width="319" height="92.175" viewBox="0 0 319 92.175">
  <defs>
    <clipPath id="clip-path">
      <rect id="Rectangle_17631" data-name="Rectangle 17631" width="90.068" height="92.175" rx="16" fill="none"/>
    </clipPath>
    <clipPath id="clip-path-2">
      <rect id="Rectangle_17630" data-name="Rectangle 17630" width="90.068" height="92.078" rx="17.25" fill="none"/>
    </clipPath>
    <clipPath id="clip-path-3">
      <rect id="Rectangle_17632" data-name="Rectangle 17632" width="78.487" height="67.127" fill="none"/>
    </clipPath>
  </defs>
  <g id="Layer_2" data-name="Layer 2" transform="translate(187.964 20.209)">
    <g id="Layer_1" data-name="Layer 1" transform="translate(-187.987 -20.21)">
      <g id="Group_77212" data-name="Group 77212" transform="translate(0 26.696)">
        <text id="F" transform="translate(0.022 28.304)" font-size="30" font-family="Proxima Nova" font-weight="700"><tspan x="0" y="0">F</tspan></text>
        <text id="a" transform="translate(24.022 26.304)" font-size="26" font-family="Proxima Nova" font-weight="700"><tspan x="0" y="0">a</tspan></text>
        <text id="s" transform="translate(45.022 26.304)" font-size="27" font-family="Proxima Nova" font-weight="700"><tspan x="0" y="0">s</tspan></text>
        <text id="a-2" data-name="a" transform="translate(65.022 26.304)" font-size="26" font-family="Proxima Nova" font-weight="700"><tspan x="0" y="0">a</tspan></text>
        <text id="k" transform="translate(87.022 27.304)" font-size="27" font-family="Proxima Nova" font-weight="700"><tspan x="0" y="0">k</tspan></text>
        <text id="h" transform="translate(108.022 28.304)" font-size="29" font-family="Proxima Nova" font-weight="700"><tspan x="0" y="0">h</tspan></text>
        <text id="a-3" data-name="a" transform="translate(132.022 26.304)" font-size="26" font-family="Proxima Nova" font-weight="700"><tspan x="0" y="0">a</tspan></text>
        <text id="n" transform="translate(153.022 28.304)" font-size="29" font-family="Proxima Nova" font-weight="700"><tspan x="0" y="0">n</tspan></text>
        <text id="g" transform="translate(178.022 28.304)" font-size="29" font-family="Proxima Nova" font-weight="700"><tspan x="0" y="0">g</tspan></text>
        <text id="y" transform="translate(202.022 27.304)" font-size="27" font-family="Proxima Nova" font-weight="700"><tspan x="0" y="0">y</tspan></text>
      </g>
      <g id="Group_77210" data-name="Group 77210" transform="translate(228.954 0)" clip-path="url(#clip-path)">
        <g id="Group_77209" data-name="Group 77209" clip-path="url(#clip-path-2)">
          <rect id="Rectangle_17629" data-name="Rectangle 17629" width="90.068" height="92.175" fill="#fd7201"/>
        </g>
      </g>
      <g id="Group_77211" data-name="Group 77211" transform="translate(232.397 17.011)" clip-path="url(#clip-path-3)">
        <path id="Path_9255" data-name="Path 9255" d="M69.882,56.97c-1.129,0-1.377.5-1.377,1.652s.124,2.121,1.267,2.121,1.487-.936,1.487-2.121S71.011,56.97,69.882,56.97ZM9.543,27.324A34.975,34.975,0,0,0,11.058,32.6a9.639,9.639,0,0,0,1.2,1.68,16.855,16.855,0,0,0,2.189,2.01,19.745,19.745,0,0,0,2.286,1.694,15.05,15.05,0,0,0,2.754,1.377,9.942,9.942,0,0,0,2.355.84,18.135,18.135,0,0,0,3.029.592c.73.083,9.253,2.479,6.885-3.8L29.247,30.6l2.423,2.355c2.189,1.735,10.258,3.319,11.415,2.754l8.634,9.735c1.377.386,2.837.785,4.227,1.212-.3-.124,1.2.441,2.754.991a34.1,34.1,0,0,1,3.814,1.6A54.488,54.488,0,0,1,68.7,52.784c1.005.647,2.107,1.377,3.236,2.231.688.537,1.377,1.143,2.189,1.818l2.258,2.162A5.384,5.384,0,0,1,78.639,62.9a4.379,4.379,0,0,0-.454.151,4.463,4.463,0,0,1-.509.165c-1.005.3-1.735.482-2.41.744l-1.377.523c-1.115.5-2.189.909-3.222,1.377a9.734,9.734,0,0,0-1.267.62,6.757,6.757,0,0,0-.606.344c0,.069,0,.069,0,.124s-.083,0-.083.124a.193.193,0,0,0,0,.124.413.413,0,0,0,.234.358,12.5,12.5,0,0,0,2.231.344c1.17.207,2.244.427,3.332.688a24.9,24.9,0,0,1,3.222.964L65.6,72.5H64.167a10.272,10.272,0,0,1-2.919-.785,13.385,13.385,0,0,1-3.195-2.065A19.732,19.732,0,0,1,55.768,66.9a13.1,13.1,0,0,1-1.377-2.905,11.484,11.484,0,0,1-.73-2.919,15.394,15.394,0,0,1-.179-2.368c-4.021-.358-7.959-.826-11.883-1.377a58.178,58.178,0,0,1-17.309-6c-1.5-.771-3.029-1.556-4.489-2.41a27.239,27.239,0,0,1-3.071-1.983c-.909-.73-1.749-1.377-2.534-2.121a27.539,27.539,0,0,1-2.492-2.7c-1.377-1.735-1.2.785-1.859-1.446-.248-1.005-.812-4.461-1.859-7.725A3.511,3.511,0,0,1,7.9,31.785,14.032,14.032,0,0,1,8.042,30.3a14.748,14.748,0,0,1,.785-2.754c.248-.523.812-.606.73-.179Z" transform="translate(-0.469 -7.316)" fill="#fff"/>
        <path id="Path_9256" data-name="Path 9256" d="M24.339,60.282A54.652,54.652,0,0,0,43.92,67.814l4.861.537,4.985.454,5.26.1a19.03,19.03,0,0,1-3.663-3.126l-1.046-1.294a13.067,13.067,0,0,1-2.01-3.759c-.207-.868-.386-1.652-.537-2.479l-.248-1.955-5.219-.7-4.131-.647-2.754-.5a43.174,43.174,0,0,1-4.7-1.377l-5-1.955L25.84,49.239l-3.9-2.079-3.69-2.176-2.892-2.065-3.608-3.608L9,35.4l.138,1.473a34.424,34.424,0,0,0,4.7,13.426,24.042,24.042,0,0,0,6.4,7.146l1.377,1.019,2.754,1.818Z" transform="translate(-0.05 -4.184)" fill="#fff"/>
        <path id="Path_9257" data-name="Path 9257" d="M12.308,36.8a33.956,33.956,0,0,0-.647-3.787L6.579,13.3v-.33s0-.124-.069-.165-.083-.083-.124,0-.124.069-.165.151a.372.372,0,0,0,0,.289L5.629,22.3,5.492,24.37c-.1.592,0,1.074-.124,1.611a3.084,3.084,0,0,1-.592,1.294,10.933,10.933,0,0,1-.964,1.046l-.661.537-.551.234c.592.647,1.129,1.253,1.68,1.928s1.377,1.873,2.189,2.837,1.267.936,1.859,1.721A16.221,16.221,0,0,1,9.87,38.015a11.32,11.32,0,0,1,.62,1.2c.151.468,1.2,3.195,1.377,2.437a20.2,20.2,0,0,0,.4-2.671V36.8Z" transform="translate(-2.462 -12.72)" fill="#fff"/>
        <path id="Path_9258" data-name="Path 9258" d="M29.685,57.332a28.53,28.53,0,0,1-3.25-1.611c-.124,0-1.79-1.666-1.914-1.666a5.826,5.826,0,0,1-1.473,0c-2.121-.179-3.429,1.129-5.508.757a55.628,55.628,0,0,1,6.293,4.9,61.4,61.4,0,0,1,4.709,4.558,3.457,3.457,0,0,0,1.088-.22,35.806,35.806,0,0,0,3.745-2A12.792,12.792,0,0,0,36.4,59.714c-.661-.248-1.377-.468-2-.675A27.54,27.54,0,0,1,29.671,57.4Z" transform="translate(3.17 2.842)" fill="#fff"/>
      </g>
    </g>
  </g>
</svg>
