<svg id="Layer_1-2" xmlns="http://www.w3.org/2000/svg" xmlns:xlink="http://www.w3.org/1999/xlink" width="212.857" height="66.79" viewBox="0 0 212.857 66.79">
  <defs>
    <linearGradient id="linear-gradient" x1="0.5" x2="0.5" y2="1" gradientUnits="objectBoundingBox">
      <stop offset="0" stop-color="#1187be"/>
      <stop offset="1" stop-color="#1a446d"/>
    </linearGradient>
    <linearGradient id="linear-gradient-6" x1="0.5" x2="0.5" y2="1" gradientUnits="objectBoundingBox">
      <stop offset="0" stop-color="#127ab1"/>
      <stop offset="1" stop-color="#1e3055"/>
    </linearGradient>
  </defs>
  <path id="Path_12126" data-name="Path 12126" d="M316.419,103.652a7.718,7.718,0,0,0-2.339,5.636v1.068h13.626a5.817,5.817,0,0,1-5.691,4.691H314.08v2.219h8a8.008,8.008,0,0,0,7.955-8.02v-1.108H316.407a5.567,5.567,0,0,1,1.941-3.264,5.676,5.676,0,0,1,3.751-1.364h7.935V101.29h-7.978a7.794,7.794,0,0,0-5.636,2.362Z" transform="translate(-235.335 -75.894)" fill="url(#linear-gradient)"/>
  <path id="Path_12127" data-name="Path 12127" d="M402.217,122.34a5.284,5.284,0,0,0-4.232,2.1A5.339,5.339,0,0,0,388.4,127.7v5.338h2.239V127.7a3.029,3.029,0,0,1,.905-2.214,3.117,3.117,0,0,1,5.313,2.046v5.506h2.219v-5.5a3.015,3.015,0,0,1,.965-2.1,3.162,3.162,0,0,1,4.39.063,3,3,0,0,1,.925,2.2v5.338h2.2V127.7a5.325,5.325,0,0,0-5.338-5.358Z" transform="translate(-291.021 -91.666)" fill="url(#linear-gradient)"/>
  <path id="Path_12128" data-name="Path 12128" d="M479.618,122.17a5.382,5.382,0,0,0,0,10.763,5.335,5.335,0,0,0,3.141-1.008v1.008h2.219v-5.38a5.376,5.376,0,0,0-5.358-5.38Zm-2.216,3.167a3.117,3.117,0,1,1-.928,2.214A3.036,3.036,0,0,1,477.4,125.337Z" transform="translate(-355.355 -91.539)" fill="url(#linear-gradient)"/>
  <path id="Path_12129" data-name="Path 12129" d="M529.277,123.784a5.142,5.142,0,0,0-1.587,3.743v5.443h2.219v-5.36a3.168,3.168,0,0,1,3.142-3.141h.125V122.25h-.125a5.227,5.227,0,0,0-3.773,1.532Z" transform="translate(-395.389 -91.598)" fill="url(#linear-gradient)"/>
  <path id="Path_12130" data-name="Path 12130" d="M561.229,101.38H559.01v10.678a5.061,5.061,0,0,0,1.577,3.733,5.243,5.243,0,0,0,3.783,1.544h.125v-2.219h-.125a3.167,3.167,0,0,1-3.141-3.141v-3.142H564.5v-2.219h-3.267Z" transform="translate(-418.856 -75.961)" fill="url(#linear-gradient)"/>
  <path id="Path_12131" data-name="Path 12131" d="M614.143,115.067h-1.823a5.812,5.812,0,0,1-5.8-5.8V101.33H604.3v8.02a8.026,8.026,0,0,0,8.018,7.935h4.042V101.333h-2.219v13.734Z" transform="translate(-452.791 -75.924)" fill="#ebac21"/>
  <rect id="Rectangle_18459" data-name="Rectangle 18459" width="2.219" height="10.718" transform="translate(166.271 30.644)" fill="#ebac21"/>
  <path id="Path_12132" data-name="Path 12132" d="M664.208,103.536a1.027,1.027,0,0,0,.77-.331,1.086,1.086,0,0,0,.318-.777,1.061,1.061,0,0,0-.318-.77,1.047,1.047,0,0,0-.77-.318,1.086,1.086,0,0,0-.777.318,1.034,1.034,0,0,0-.331.77,1.108,1.108,0,0,0,1.108,1.111Z" transform="translate(-496.849 -75.931)" fill="#ebac21"/>
  <path id="Path_12133" data-name="Path 12133" d="M684.262,123.81a5.378,5.378,0,0,0-1.532,3.846V128.7h8.181a2.952,2.952,0,0,1-1.063,1.4,3.012,3.012,0,0,1-1.82.614h-5.3v2.239h5.3a5.382,5.382,0,0,0,5.3-5.3V126.46h-8.191a2.679,2.679,0,0,1,.91-1.3,3.2,3.2,0,0,1,1.71-.715h5.569V122.21h-5.3a5.036,5.036,0,0,0-3.766,1.6Z" transform="translate(-511.557 -91.569)" fill="#ebac21"/>
  <rect id="Rectangle_18460" data-name="Rectangle 18460" width="2.219" height="10.718" transform="translate(184.466 30.644)" fill="#ebac21"/>
  <path id="Path_12134" data-name="Path 12134" d="M736.788,103.536a1.026,1.026,0,0,0,.77-.331,1.086,1.086,0,0,0,.318-.777,1.061,1.061,0,0,0-.318-.77,1.047,1.047,0,0,0-.77-.318,1.085,1.085,0,0,0-.777.318,1.034,1.034,0,0,0-.331.77,1.109,1.109,0,0,0,1.108,1.111Z" transform="translate(-551.232 -75.931)" fill="#ebac21"/>
  <path id="Path_12135" data-name="Path 12135" d="M759.38,122.3a5.145,5.145,0,0,0-3.786,1.577,5.369,5.369,0,0,0,0,7.557,5.328,5.328,0,0,0,9.1-3.773,5.219,5.219,0,0,0-1.554-3.783,5.12,5.12,0,0,0-3.763-1.577Zm-2.214,3.167a3.148,3.148,0,0,1,4.418,0,3.087,3.087,0,0,1,0,4.388,3.136,3.136,0,0,1-4.408,0,3.1,3.1,0,0,1-.01-4.388Z" transform="translate(-564.989 -91.636)" fill="#ebac21"/>
  <path id="Path_12136" data-name="Path 12136" d="M815.2,123.614a5.408,5.408,0,0,0-7.619.01,5.165,5.165,0,0,0-1.587,3.783v5.4h2.239v-5.4a3.023,3.023,0,0,1,.925-2.224,3.072,3.072,0,0,1,2.236-.918,2.994,2.994,0,0,1,2.2.915,3.047,3.047,0,0,1,.915,2.224v5.4h2.261v-5.4a5.18,5.18,0,0,0-1.577-3.8Z" transform="translate(-603.914 -91.449)" fill="#ebac21"/>
  <path id="Path_12137" data-name="Path 12137" d="M33.4,66.785A33.394,33.394,0,1,1,57.011,57h0A33.172,33.172,0,0,1,33.4,66.785ZM14.251,16.917V35.3a15.246,15.246,0,0,0,2.56,8.554c4.179,6.082,11.616,6.554,13.8,6.554.276,0,.486,0,.584-.013h1.2a18.055,18.055,0,0,1-12.31-7.346,13.555,13.555,0,0,1-2.557-7.7V19.986h9.853a13.875,13.875,0,0,1,6.747,1.753,10.911,10.911,0,0,1,5.789,8.976v7.677l3.192,3.222V30.724a14.3,14.3,0,0,0-.815-4.483,13.463,13.463,0,0,0-6.263-7.5,14.862,14.862,0,0,0-7.123-1.82H14.251Zm9.7,8.823V36.619a14.274,14.274,0,0,0,.815,4.478,13.462,13.462,0,0,0,6.265,7.489,14.842,14.842,0,0,0,7.11,1.82H52.789V31.446a13,13,0,0,0-.755-4.362A15.067,15.067,0,0,0,47.218,20.2a19.013,19.013,0,0,0-11.952-3.282h-.622l.293.105c6.123,1.993,11.257,5.543,13.077,9.048a10.583,10.583,0,0,1,1.361,5.586V47.342H39.654A13.9,13.9,0,0,1,33.491,45.9a11,11,0,0,1-5.95-6.985,11.949,11.949,0,0,1-.4-3.081v-6.87l-3.192-3.217Z" transform="translate(0 0.005)" fill="url(#linear-gradient-6)"/>
</svg>
